<?xml version="1.0" encoding="UTF-8" standalone="no"?>
<svg
   xmlns:dc="http://purl.org/dc/elements/1.1/"
   xmlns:cc="http://creativecommons.org/ns#"
   xmlns:rdf="http://www.w3.org/1999/02/22-rdf-syntax-ns#"
   xmlns:svg="http://www.w3.org/2000/svg"
   xmlns="http://www.w3.org/2000/svg"
   viewBox="0 0 171.46315 43.596413"
   height="43.596413"
   width="171.46315"
   xml:space="preserve"
   id="svg360"
   version="1.1"><metadata
     id="metadata366"><rdf:RDF><cc:Work
         rdf:about=""><dc:format>image/svg+xml</dc:format><dc:type
           rdf:resource="http://purl.org/dc/dcmitype/StillImage" /><dc:title></dc:title></cc:Work></rdf:RDF></metadata><defs
     id="defs364" /><g
     transform="matrix(1.3333333,0,0,-1.3333333,0,43.596411)"
     id="g368"><g
       id="g370"><text
         id="text374"
         style="font-variant:normal;font-weight:bold;font-size:29.99999809px;font-family:'Noto Sans CJK JP Bold';-inkscape-font-specification:NotoSansCJKjp-Bold;writing-mode:lr-tb;fill:#000000;fill-opacity:1;fill-rule:nonzero;stroke:none"
         transform="matrix(1,0,0,-1,-2.73,-1.06086e-6)"><tspan
           id="tspan372"
           y="0"
           x="0 9.8999996 32.369999 49.919998 68.369995 88.829994">INFERN</tspan></text>
<path
         id="path376"
         style="fill:#008000;fill-opacity:1;fill-rule:nonzero;stroke:none"
         d="m 122.652,25.244 c -1.906,-2.625 -2.769,-4.117 -3.113,-2.164 -0.344,1.973 -0.738,5.391 -1.68,6.789 0,0 -1.773,2.938 -2.039,2.824 -0.265,-0.113 -0.562,-0.332 -0.703,-0.75 -0.832,-2.488 -2.008,-7.492 -3.199,-11.179 -0.961,-2.992 -3.18,-4.973 -3.18,-8.867 0,-7.204 4.051,-11.61 9.93,-11.61 5.879,0 9.93,4.406 9.93,11.61 0,4.015 -1.262,7.109 -3.399,9.058 M 118.668,4.127 c -3.301,0 -5.402,3.027 -5.402,7.77 0,4.769 2.101,7.617 5.402,7.617 3.301,0 5.398,-2.848 5.398,-7.617 0,-4.743 -2.097,-7.77 -5.398,-7.77 z" /></g></g></svg>